<?xml version="1.0" encoding="utf-8"?><svg width="208" height="156" viewBox="0 0 208 156" xmlns="http://www.w3.org/2000/svg" xmlns:xlink="http://www.w3.org/1999/xlink"><svg width="52" height="52" viewBox="-10 -10 52 52" id="arrow-bottom" xmlns="http://www.w3.org/2000/svg"><path fill="#ffa11b" d="M27.414 19.414l-10 10a2 2 0 01-2.828 0l-10-10a2 2 0 112.828-2.828L14 23.172V4a2 2 0 114 0v19.172l6.586-6.586c.39-.39.902-.586 1.414-.586s1.024.195 1.414.586a2 2 0 010 2.828z"/></svg><svg width="52" height="52" viewBox="-10 -10 52 52" id="arrow-first" x="52" xmlns="http://www.w3.org/2000/svg"><path fill="#ffa11b" d="M27.414 12.586l-10-10a2 2 0 00-2.828 0l-10 10a2 2 0 102.828 2.828L14 8.828V28a2 2 0 104 0V8.828l6.586 6.586c.39.39.902.586 1.414.586s1.024-.195 1.414-.586a2 2 0 000-2.828z"/></svg><svg width="52" height="52" viewBox="-10 -10 52 52" id="arrow-left" y="52" xmlns="http://www.w3.org/2000/svg"><path fill="#ffa11b" d="M12.586 27.414l-10-10a2 2 0 010-2.828l10-10a2 2 0 112.828 2.828L8.828 14H28a2 2 0 110 4H8.828l6.586 6.586c.39.39.586.902.586 1.414s-.195 1.024-.586 1.414a2 2 0 01-2.828 0z"/></svg><svg width="52" height="52" viewBox="-10 -10 52 52" id="arrow-right" x="52" y="52" xmlns="http://www.w3.org/2000/svg"><path fill="#ffa11b" d="M19.414 27.414l10-10a2 2 0 000-2.828l-10-10a2 2 0 10-2.828 2.828L23.172 14H4a2 2 0 100 4h19.172l-6.586 6.586c-.39.39-.586.902-.586 1.414s.195 1.024.586 1.414a2 2 0 002.828 0z"/></svg><svg width="52" height="52" viewBox="-10 -10 52 52" id="circle-bottom" x="104" xmlns="http://www.w3.org/2000/svg"><path fill="#ffa11b" d="M32 16c0-8.837-7.163-16-16-16S0 7.163 0 16s7.163 16 16 16 16-7.163 16-16zM3 16C3 8.82 8.82 3 16 3s13 5.82 13 13-5.82 13-13 13S3 23.18 3 16z"/><path fill="#ffa11b" d="M9.914 11.086l-2.829 2.829 8.914 8.914 8.914-8.914-2.828-2.828-6.086 6.086z"/></svg><svg width="52" height="52" viewBox="-10 -10 52 52" id="circle-first" x="104" y="52" xmlns="http://www.w3.org/2000/svg"><path fill="#ffa11b" d="M0 16c0 8.837 7.163 16 16 16s16-7.163 16-16S24.837 0 16 0 0 7.163 0 16zm29 0c0 7.18-5.82 13-13 13S3 23.18 3 16 8.82 3 16 3s13 5.82 13 13z"/><path fill="#ffa11b" d="M22.086 20.914l2.829-2.829-8.914-8.914-8.914 8.914 2.828 2.828 6.086-6.086z"/></svg><svg width="52" height="52" viewBox="-10 -10 52 52" id="circle-left" y="104" xmlns="http://www.w3.org/2000/svg"><path fill="#ffa11b" d="M16 32c8.837 0 16-7.163 16-16S24.837 0 16 0 0 7.163 0 16s7.163 16 16 16zm0-29c7.18 0 13 5.82 13 13s-5.82 13-13 13S3 23.18 3 16 8.82 3 16 3z"/><path fill="#ffa11b" d="M20.914 9.914l-2.829-2.829-8.914 8.914 8.914 8.914 2.828-2.828-6.086-6.086z"/></svg><svg width="52" height="52" viewBox="-10 -10 52 52" id="circle-right" x="52" y="104" xmlns="http://www.w3.org/2000/svg"><path fill="#ffa11b" d="M16 0C7.163 0 0 7.163 0 16s7.163 16 16 16 16-7.163 16-16S24.837 0 16 0zm0 29C8.82 29 3 23.18 3 16S8.82 3 16 3s13 5.82 13 13-5.82 13-13 13z"/><path fill="#ffa11b" d="M11.086 22.086l2.829 2.829 8.914-8.914-8.914-8.914-2.828 2.828 6.086 6.086z"/></svg><svg width="52" height="52" viewBox="-10 -10 52 52" id="clock" x="104" y="104" xmlns="http://www.w3.org/2000/svg"><path fill="#ffa11b" d="M20.586 23.414L14 16.828V8h4v7.172l5.414 5.414zM16 0C7.163 0 0 7.163 0 16s7.163 16 16 16 16-7.163 16-16S24.837 0 16 0zm0 28C9.373 28 4 22.627 4 16S9.373 4 16 4s12 5.373 12 12-5.373 12-12 12z"/></svg><svg width="52" height="52" viewBox="-10 -10 52 52" id="envelop" x="156" xmlns="http://www.w3.org/2000/svg"><path fill="#ffa11b" d="M29 4H3C1.35 4 0 5.35 0 7v20c0 1.65 1.35 3 3 3h26c1.65 0 3-1.35 3-3V7c0-1.65-1.35-3-3-3zM12.461 17.199L4 23.789V8.113l8.461 9.086zM5.512 8h20.976L16 15.875 5.512 8zm7.278 9.553L16 21l3.21-3.447L25.79 26H6.211l6.58-8.447zm6.749-.354L28 8.113v15.676l-8.461-6.59z"/></svg><svg width="52" height="52" viewBox="-10 -10 52 52" id="location" x="156" y="52" xmlns="http://www.w3.org/2000/svg"><path fill="#ffa11b" d="M16 0C10.477 0 6 4.477 6 10c0 10 10 22 10 22s10-12 10-22c0-5.523-4.477-10-10-10zm0 16a6 6 0 110-12 6 6 0 010 12z"/></svg><svg width="52" height="52" viewBox="-10 -10 52 52" id="phone" x="156" y="104" xmlns="http://www.w3.org/2000/svg"><path fill="#ffa11b" d="M22 20c-2 2-2 4-4 4s-4-2-6-4-4-4-4-6 2-2 4-4-4-8-6-8-6 6-6 6c0 4 4.109 12.109 8 16s12 8 16 8c0 0 6-4 6-6s-6-8-8-6z"/></svg></svg>